# Blender v2.93.5 OBJ File: 'ground.blend'
# www.blender.org
mtllib ground.mtl
o Cube
v 60.000000 0.000000 -60.000000
v 60.000000 -2.000000 -60.000000
v 60.000000 0.000000 60.000000
v 60.000000 -2.000000 60.000000
v -60.000000 0.000000 -60.000000
v -60.000000 -2.000000 -60.000000
v -60.000000 0.000000 60.000000
v -60.000000 -2.000000 60.000000
vt 0.542969 0.470703
vt 0.986328 0.472656
vt 0.984375 0.943359
vt 0.541016 0.941406
vt 0.513672 0.941406
vt 0.539062 0.982422
vt 0.511719 0.982422
vt 0.507812 0.005859
vt 0.539062 0.001953
vt 0.544922 0.439453
vt 0.511719 0.443359
vt 0.013672 0.470703
vt 0.509766 0.474609
vt 0.017578 0.937500
vn 0.0000 1.0000 0.0000
vn 0.0000 0.0000 1.0000
vn -1.0000 0.0000 0.0000
vn 0.0000 -1.0000 0.0000
vn 1.0000 0.0000 0.0000
vn 0.0000 0.0000 -1.0000
g Cube_Cube_Material
usemtl Material
s off
f 1/1/1 5/2/1 7/3/1 3/4/1
f 4/5/2 3/4/2 7/6/2 8/7/2
f 8/8/3 7/9/3 5/10/3 6/11/3
f 6/12/4 2/13/4 4/5/4 8/14/4
f 2/13/5 1/1/5 3/4/5 4/5/5
f 6/11/6 5/10/6 1/1/6 2/13/6
