# Blender v2.93.5 OBJ File: 'untitled.blend'
# www.blender.org
mtllib body.mtl
o Cube
v 0.430303 2.218743 -0.510303
v 0.430303 0.698137 -0.510303
v 0.430303 2.218743 0.510303
v 0.430303 0.698137 0.510303
v -0.430303 2.218743 -0.510303
v -0.430303 0.698137 -0.510303
v -0.430303 2.218743 0.510303
v -0.430303 0.698137 0.510303
vt 0.625000 0.500000
vt 0.875000 0.500000
vt 0.875000 0.750000
vt 0.625000 0.750000
vt 0.375000 0.750000
vt 0.625000 1.000000
vt 0.375000 1.000000
vt 0.375000 0.000000
vt 0.625000 0.000000
vt 0.625000 0.250000
vt 0.375000 0.250000
vt 0.125000 0.500000
vt 0.375000 0.500000
vt 0.125000 0.750000
vn 0.0000 1.0000 0.0000
vn 0.0000 0.0000 1.0000
vn -1.0000 0.0000 0.0000
vn 0.0000 -1.0000 0.0000
vn 1.0000 0.0000 0.0000
vn 0.0000 0.0000 -1.0000
usemtl Material
s off
f 1/1/1 5/2/1 7/3/1 3/4/1
f 4/5/2 3/4/2 7/6/2 8/7/2
f 8/8/3 7/9/3 5/10/3 6/11/3
f 6/12/4 2/13/4 4/5/4 8/14/4
f 2/13/5 1/1/5 3/4/5 4/5/5
f 6/11/6 5/10/6 1/1/6 2/13/6
o Cube.001_Cube.007
v -0.228276 2.147523 0.228276
v -0.228276 2.147523 -0.228276
v -0.228276 2.604076 0.228276
v 0.228276 2.147523 0.228276
v 0.228276 2.147523 -0.228276
v 0.228276 2.604076 0.228276
v 0.228276 2.604076 -0.228276
v -0.228276 2.604076 -0.228276
vt 0.125000 0.500000
vt 0.375000 0.500000
vt 0.375000 0.750000
vt 0.125000 0.750000
vt 0.375000 0.000000
vt 0.625000 0.000000
vt 0.625000 0.250000
vt 0.375000 0.250000
vt 0.625000 0.750000
vt 0.625000 1.000000
vt 0.375000 1.000000
vt 0.625000 0.500000
vt 0.875000 0.500000
vt 0.875000 0.750000
vn 0.0000 -1.0000 0.0000
vn -1.0000 0.0000 0.0000
vn 0.0000 0.0000 1.0000
vn 1.0000 0.0000 0.0000
vn 0.0000 1.0000 0.0000
vn 0.0000 0.0000 -1.0000
usemtl Material.001
s off
f 10/15/7 13/16/7 12/17/7 9/18/7
f 9/19/8 11/20/8 16/21/8 10/22/8
f 12/17/9 14/23/9 11/24/9 9/25/9
f 13/16/10 15/26/10 14/23/10 12/17/10
f 15/26/11 16/27/11 11/28/11 14/23/11
f 10/22/12 16/21/12 15/26/12 13/16/12
